<svg width="86" height="83" viewBox="0 0 86 83" fill="none" xmlns="http://www.w3.org/2000/svg">
<path d="M45.2418 2.93179L55.4188 23.5527C56.22 25.1759 57.7686 26.3011 59.56 26.5614L82.3165 29.8681C84.367 30.1661 85.1858 32.686 83.702 34.1323L67.2353 50.1834C65.939 51.447 65.3475 53.2675 65.6535 55.0517L69.5408 77.7162C69.891 79.7584 67.7475 81.3158 65.9134 80.3516L45.5594 69.6509C43.9571 68.8085 42.0429 68.8085 40.4406 69.6509L20.0866 80.3516C18.2525 81.3158 16.109 79.7584 16.4592 77.7162L20.3465 55.0517C20.6525 53.2675 20.061 51.447 18.7647 50.1834L2.29799 34.1323C0.814198 32.686 1.63298 30.1661 3.68352 29.8681L26.44 26.5614C28.2314 26.3011 29.78 25.1759 30.5812 23.5527L40.7582 2.9318C41.6752 1.07368 44.3248 1.07368 45.2418 2.93179Z" stroke="#F5F5F5" stroke-width="3"/>
</svg>
